<svg width="188" height="201" viewBox="0 0 188 201" fill="none" xmlns="http://www.w3.org/2000/svg">
<circle cx="115" cy="128" r="73" fill="#389555"/>
<path d="M7.08301 63.75V85V99.1667V148.75C7.08301 156.542 13.4254 162.917 21.2497 162.917H84.9997H148.75C156.577 162.917 162.916 156.542 162.916 148.75V99.1667V85V63.75H7.08301Z" fill="#F39C12"/>
<path d="M7.08301 56.666V77.916V92.0827V141.666C7.08301 149.458 13.4254 155.833 21.2497 155.833H84.9997H148.75C156.577 155.833 162.916 149.458 162.916 141.666V92.0827V77.916V56.666H7.08301Z" fill="#F1C40F"/>
<path d="M14.1667 42.5C6.34242 42.5 0 48.875 0 56.6667V70.8333H170V56.6667C170 48.875 163.66 42.5 155.833 42.5H141.667H92.0833H77.9167H28.3333H14.1667Z" fill="#F1C40F"/>
<path d="M106.25 35.417H63.75V162.917H106.25V35.417Z" fill="#E74C3C"/>
<path d="M55.8501 7.08287C48.7767 6.37453 41.8726 9.91585 38.0858 15.5825C32.5778 24.0825 35.8694 34.7077 45.41 39.666C48.4778 41.791 51.7637 42.4995 55.0709 42.4995H56.7072H80.0836H89.9011H113.269H114.905C118.213 42.4995 121.578 41.791 124.645 39.666C134.186 34.7077 137.402 24.0825 131.891 15.5825C126.387 7.08252 114.239 4.24901 104.698 9.20735C101.631 10.624 99.2228 12.7492 97.5369 15.5825H97.3811C97.1544 16.2909 96.9561 16.2914 96.7578 16.9997L84.9923 34.708L73.2269 16.9997C73.0286 16.2914 72.8303 16.2909 72.6036 15.5825H72.4478C70.7577 12.7492 68.4237 10.624 65.3552 9.20735C62.3738 7.79068 59.0652 7.08287 55.8501 7.08287ZM54.6813 15.5825C56.5974 15.5825 58.58 16.2914 60.3693 16.9997C60.9692 16.9997 61.509 17.7079 62.0048 17.7079C62.354 18.4162 62.6437 18.4159 62.9398 19.1242H63.1736C63.3329 19.1242 63.4994 19.8323 63.6411 19.8323H63.8748H63.9527C64.0661 20.5407 64.2431 20.5414 64.3423 20.5414L72.6036 33.2909H56.0838H55.1488H54.7593H53.9801H53.5905C53.1372 33.2909 52.7115 33.291 52.2659 32.5827C51.6327 32.5827 50.9966 32.5829 50.3959 31.8745C49.2038 31.8745 48.1385 30.4575 47.3572 29.7492C45.0147 26.9159 44.6683 23.374 46.7338 19.8323C48.4551 17.7073 51.4875 15.5825 54.6813 15.5825ZM115.373 15.5825C118.567 15.5825 121.599 17.7073 123.32 19.8323C125.389 23.374 124.964 26.9159 122.619 29.7492C121.84 30.4575 120.855 31.8745 119.658 31.8745C119.063 32.5829 118.426 32.5827 117.788 32.5827C117.349 33.291 116.839 33.2909 116.386 33.2909H115.996H115.217H114.827H113.892H97.3811L105.633 20.5414C105.732 20.5414 105.909 20.5407 106.023 19.8323H106.101C106.087 19.8323 106.122 19.8323 106.101 19.8323H106.334C106.476 19.8323 106.646 19.1242 106.802 19.1242H107.036C107.333 18.4159 107.702 18.4162 108.049 17.7079C108.552 17.7079 109.09 16.9997 109.685 16.9997C111.477 16.2914 113.46 15.5825 115.373 15.5825Z" fill="#C0392B"/>
<path d="M162.916 70.834H7.08301V77.9173H162.916V70.834Z" fill="#F39C12"/>
<path d="M106.25 70.834H63.75V77.9173H106.25V70.834Z" fill="#C0392B"/>
<path d="M106.25 155.834H63.75V162.917H106.25V155.834Z" fill="#C0392B"/>
</svg>
